<svg xmlns="http://www.w3.org/2000/svg" viewBox="0 0 256 256"><defs><style>.a{fill:#66a4c6;}.b{fill:#354f60;}</style></defs><path class="a" d="M128,251.76q-5.1-5.08-10.17-10.1C71.94,196.16,28.6,153.17,28.6,102.4a99.4,99.4,0,1,1,198.8,0c0,50.77-43.34,93.75-89.23,139.26Q133.1,246.69,128,251.76ZM128,61a41.4,41.4,0,1,0,41.4,41.4A41.44,41.44,0,0,0,128,61Z"/><path class="b" d="M128,6a96.5,96.5,0,0,1,96.4,96.4c0,22.41-8.38,44.43-26.37,69.28-16.4,22.65-38.54,44.61-62,67.85l-8.05,8-8-8c-23.44-23.24-45.58-45.2-62-67.85C40,146.83,31.6,124.81,31.6,102.4A96.5,96.5,0,0,1,128,6m0,140.8a44.4,44.4,0,1,0-44.4-44.4A44.45,44.45,0,0,0,128,146.8M128,0A102.41,102.41,0,0,0,25.6,102.4C25.6,159,76.8,204.8,128,256,179.2,204.8,230.4,159,230.4,102.4A102.41,102.41,0,0,0,128,0Zm0,140.8a38.4,38.4,0,1,1,38.4-38.4A38.4,38.4,0,0,1,128,140.8Z"/></svg>